<?xml version="1.0" encoding="utf-8"?>
<!-- Generator: Adobe Illustrator 24.0.0, SVG Export Plug-In . SVG Version: 6.00 Build 0)  -->
<svg version="1.1" id="Capa_1" xmlns="http://www.w3.org/2000/svg" xmlns:xlink="http://www.w3.org/1999/xlink" x="0px" y="0px"
	 viewBox="0 0 188.9 40" style="enable-background:new 0 0 188.9 40;" xml:space="preserve">
<style type="text/css">
	.st0{fill:#FFFFFF;}
</style>
<title>logo-sendengo</title>
<g id="logo">
	<path class="st0" d="M14.5,10.9l-3.6-0.9C6.9,9.1,6.6,8.5,6.6,7.6c0-1.5,1.6-2.5,4-2.5c2.2,0,4.6,0.9,4.9,3.6l0.1,0.8h6l-0.1-1
		C20.8,2.2,15.4,0,10.6,0c-5.7,0-10,3.4-10,7.9c0,3.9,2.7,6.5,8,7.7l3.6,0.8c3.4,0.8,4,1.8,4,3c0,1.7-1.9,2.8-4.6,2.8
		c-2.9,0.1-5.3-2.1-5.5-5l0-0.8H0l0.1,1c0.4,4.8,4.2,9.9,11.4,9.9c6.2,0,10.7-3.4,10.7-8.1C22.2,15,19.6,12.2,14.5,10.9"/>
	<polygon class="st0" points="30.8,15.9 41.2,15.9 41.2,10.8 30.8,10.8 30.8,5.5 41.5,5.5 41.5,0.4 25,0.4 25,27 41.8,27 41.8,21.9 
		30.8,21.9 	"/>
	<path class="st0" d="M146.3,17h8.4c-0.1,3.1-2.4,5.2-5.9,5.2c-4.3,0-7-3.3-7-8.6s2.6-8.6,6.8-8.6c3,0,5.1,1.6,5.6,4.3l0.1,0.7h6
		l-0.2-1c-0.9-5.5-5.4-9.1-11.7-9.1c-7.4,0-12.7,5.8-12.7,13.7s5.4,13.7,12.5,13.7c2.5,0,4.9-1,6.6-2.8V27h5.6V12h-14.1V17z"/>
	<path class="st0" d="M176.2,0c-7.2,0-12.7,5.9-12.7,13.7s5.4,13.7,12.7,13.7s12.7-5.9,12.7-13.7S183.5,0,176.2,0 M182.9,13.7
		c0,5.1-2.7,8.6-6.6,8.6s-6.6-3.5-6.6-8.6s2.7-8.6,6.6-8.6S182.9,8.5,182.9,13.7"/>
	<polygon class="st0" points="62.2,20.4 54.9,0.4 45.3,0.4 45.3,27 51.2,27 51.2,7 58.5,27 68.1,27 68.1,0.4 62.2,0.4 	"/>
	<polygon class="st0" points="127.6,20.4 120.2,0.4 110.7,0.4 110.7,27 116.5,27 116.5,7 123.8,27 133.4,27 133.4,0.4 127.6,0.4 	
		"/>
	<path class="st0" d="M88.4,0.4H71.5v27l6.6-12.7L78,6.9h4.7c0,0,3,0,1.5,2.7l-0.1,0.2c0,0-0.2,0.3-0.7,1.5
		c-3.2,6.4-14.9,28.5-15,28.8h7.4L86,19.9c2.7-5.1,4.9-9.4,5.3-10.2C95.7,0.6,89.4,0.4,88.4,0.4z"/>
	<polygon class="st0" points="99.8,0.3 96.7,6.5 101.4,6.5 107,6.5 107,0.3 	"/>
	<polygon class="st0" points="94.6,10.7 91.6,16.7 107,16.7 107,10.7 	"/>
	<polygon class="st0" points="89.4,21.1 86.4,27 107.1,27 107.1,21.1 	"/>
</g>
</svg>
